<svg version="1.2" xmlns="http://www.w3.org/2000/svg" viewBox="0 0 320 320" width="320" height="320"><style>.a{fill:#522ba8}.b{fill:#ac86ed}.c{fill:#af89ee}.d{fill:#48249c}.e{fill:#b18df0}.f{fill:#b18def}.g{fill:#b18cef}</style><path class="a" d="m134 204.5c-10.1 3.4-20.1 6.7-30 10.1-1.3 0.5-2.2 0.5-3.3-0.7-14.3-16.9-22.4-36.4-22.4-58.5 0.1-27.8 10.6-51.4 32.6-68.7 26.3-20.7 55.7-24.8 86.4-10.9 24.6 11.1 40.3 30.7 47.9 56.7 0.4 1.2 0.3 2-0.8 3-24.9 21.9-52 40.8-81.6 55.8-9.4 4.7-19.1 8.7-28.8 13.2z"/><path class="b" d="m136.1 239.3c-6.7 2.1-13.5 4.2-20.2 6.2-2.8 0.9-5.7 1.5-8.7 2 1.6-1.3 3.3-2.4 5-3.4-2.4-2.8-6-4-8.1-2.3-1.6 1.3-2.7 3.6-5.3 2.2 0.1 1.2 0.2 2 0.3 3.3-2.3-2.2-3.2-4.2-2.7-6.8 0.2-0.7-0.1-1.6-0.5-2.3-0.6-1.3-0.5-2.1 0.9-2.8 1.6-0.8 3.2-1.7 4.3-3 1.4-1.6 2.3-3.6 3.2-5.5 0.3-0.6-0.2-1.6-0.3-2.4 7.3-2.2 14.7-4.3 21.9-6.7 20.6-7 40-16.4 58.8-27.2 18.9-10.9 36.5-23.3 53.1-37.3 15.8-13.5 30.6-28 42.1-45.5 4.2-6.4 8-13.1 9.8-20.6 1.1-4.5 1.3-8.9 0-13.6 1.9-1.5 4-2.3 4.7-4.8 0.3-0.9 2.2-1.6 3.4-1.7 2.7-0.2 6.7-3.4 7.3-6.3 6 4.1 8.4 10.2 8.9 17.1 0.5 7.4-1.8 14.3-4.7 20.9-5.9 13.4-14.1 25.3-23.4 36.5-10.2 12.4-21.7 23.6-33.8 34.3-1.3 1.2-2.6 2.4-4.2 3.8-4 3.1-7.7 6-11.5 8.9-28.6 22.5-59.5 40.9-93.5 54.1-2.3 0.9-4.5 2-6.8 2.9z"/><path class="c" d="m103.8 224.5c0.3 0.8 0.8 1.8 0.5 2.4-0.9 1.9-1.8 3.9-3.2 5.5-1.1 1.3-2.7 2.2-4.3 3-1.4 0.7-1.5 1.5-0.9 2.8 0.4 0.7 0.7 1.6 0.5 2.3-0.5 2.6 0.4 4.6 2.7 6.8-0.1-1.3-0.2-2.1-0.3-3.3 2.6 1.4 3.7-0.9 5.3-2.2 2.1-1.7 5.7-0.5 8.1 2.3-1.7 1-3.4 2.1-5.2 3.4-5.3 1.4-10.6 3.1-16 3.9-8.9 1.3-17.8 2.6-26.7 2.8-14.2 0.3-28.3-1.1-40.9-8.7-11.4-6.8-16.9-19.6-14.1-32.6 1.7-7.8 4.8-15 8.9-21.8 6.9-11.4 15.2-21.8 25-31.2 0.3 0.1 0.4 0.2 0.4 0.2-4.1 6.1-8.5 12.1-12.2 18.5-4.8 8-8.2 16.5-8 26.1 0.2 9.3 5 15.6 13 19.7 7.6 3.8 15.8 4.9 24.2 5.2 14.1 0.5 27.9-1.7 41.5-4.9 0.5-0.1 1-0.1 1.7-0.2z"/><path class="d" d="m136.3 239.4c2.1-1 4.3-2.1 6.6-3 34-13.2 64.9-31.6 93.5-54.1 3.8-2.9 7.5-5.8 11.4-8.8-9 51.6-58.3 82.7-108 67-1.1-0.3-2.2-0.7-3.5-1.1z"/><path class="e" d="m249.1 223.1c9.6-14.9 15.7-30.9 19.1-48.1q0.4 0.1 0.9 0.2c-1.1 7.6-1.9 15.3-3.3 22.9-3.4 17.2-10.7 32.7-22.3 45.9-8.6 9.8-19.1 17-31.2 21.9-11.2 4.7-22.9 7.3-35 8.2-10.5 0.8-20.8-0.4-31.1-2.3 43.1 2.5 78.2-12 102.9-48.7z"/><path class="f" d="m82.4 78.9c27.6-26.8 60.3-36.9 97.9-31.8-30.9-1.3-58.6 7.6-82.6 27.3-24.2 19.7-37.2 45.7-42.2 76.6-1.6-19.1 5.6-50.2 26.9-72.1z"/><path class="g" d="m305 60.7c-0.5 3-4.5 6.2-7.2 6.4-1.2 0.1-3.1 0.8-3.4 1.7-0.7 2.5-2.8 3.3-4.7 4.6-4.3-8.9-12.4-12.1-21.3-13.8-9.8-1.9-19.7-1.7-29.5-0.3-9.6 1.4-19.1 3.4-28.7 5.2-0.5 0.1-1.1 0-1.8-0.4 4.8-1.5 9.6-3.3 14.5-4.5 9.3-2.2 18.7-4.6 28.1-6.2 14.2-2.4 28.5-3.4 42.4 1.2 4.1 1.4 7.7 3.9 11.6 6.1z"/><path class="c" d="m45.5 157.5q0.1-0.2 0.2-0.3c0 0.1 0 0.2-0.1 0.3-0.1 0-0.1 0-0.1 0z"/><path class="c" d="m45.5 157.5c-0.1 0.1-0.2 0.3-0.4 0.5-0.1 0-0.1 0-0.1 0 0.1-0.1 0.2-0.3 0.4-0.5 0.1 0 0.1 0 0.1 0z"/><path class="c" d="m44.5 158.5c0.1-0.2 0.2-0.3 0.4-0.5 0.1 0 0.1 0 0.1 0 0 0.2-0.1 0.3-0.3 0.5-0.2 0-0.2 0-0.2 0z"/><path class="c" d="m44.6 158.6q-0.1 0.2-0.3 0.3c0-0.1 0-0.2 0.1-0.4 0.1 0 0.1 0 0.2 0.1z"/><path class="c" d="m43.4 159.9c0.1-0.2 0.2-0.2 0.4-0.3 0 0.1 0 0.2-0.1 0.4-0.1 0.1-0.2 0-0.3-0.1z"/></svg>